<?xml version="1.0" encoding="UTF-8" standalone="no"?>
<!-- Created with Inkscape (http://www.inkscape.org/) -->

<svg
   version="1.1"
   id="svg18"
   width="800"
   height="213.33333"
   viewBox="0 0 800 213.33333"
   xmlns="http://www.w3.org/2000/svg"
   xmlns:svg="http://www.w3.org/2000/svg">
  <defs
     id="defs22">
    <clipPath
       clipPathUnits="userSpaceOnUse"
       id="clipPath98">
      <path
         d="M 0,160 H 600 V 0 H 0 Z"
         id="path96" />
    </clipPath>
  </defs>
  <g
     id="g26"
     transform="matrix(1.3333333,0,0,-1.3333333,0,213.33333)">
    <g
       id="g28"
       transform="translate(72.3189,64.4356)">
      <path
         d="M 0,0 -25.421,14.678 -50.844,0 -25.421,-14.678 Z"
         style="fill:#0d6394;fill-opacity:1;fill-rule:nonzero;stroke:none"
         id="path30" />
    </g>
    <g
       id="g32"
       transform="translate(46.8977,80.4649)">
      <path
         d="M 0,0 25.421,14.678 0,29.354 -25.421,14.678 Z"
         style="fill:#0d6394;fill-opacity:1;fill-rule:nonzero;stroke:none"
         id="path34" />
    </g>
    <g
       id="g36"
       transform="translate(48.0688,79.7884)">
      <path
         d="M 0,0 25.422,-14.675 50.845,0 25.422,14.678 Z"
         style="fill:#0d4972;fill-opacity:1;fill-rule:nonzero;stroke:none"
         id="path38" />
    </g>
    <g
       id="g40"
       transform="translate(45.7269,79.7385)">
      <path
         d="M 0,0 -25.382,14.743 -38.699,7.1 -38.735,-6.901 -25.46,-14.61 Z"
         style="fill:#0b79b7;fill-opacity:1;fill-rule:nonzero;stroke:none"
         id="path42" />
    </g>
    <g
       id="g44"
       transform="translate(19.1322,64.4356)">
      <path
         d="M 0,0 -12.122,7.001 V -7.001 Z"
         style="fill:#198bca;fill-opacity:1;fill-rule:nonzero;stroke:none"
         id="path46" />
    </g>
    <g
       id="g48"
       transform="translate(7.0098,88.141)">
      <path
         d="M 0,0 12.125,7.002 0,14.003 Z"
         style="fill:#198bca;fill-opacity:1;fill-rule:nonzero;stroke:none"
         id="path50" />
    </g>
    <g
       id="g52"
       transform="translate(100.6692,140.8644)">
      <path
         d="m 0,0 -26.007,-15.016 25.419,-14.678 26.01,15.014 z"
         style="fill:#0b79b7;fill-opacity:1;fill-rule:nonzero;stroke:none"
         id="path54" />
    </g>
    <g
       id="g56"
       transform="translate(45.727,49.0825)">
      <path
         d="M 0,0 -25.422,14.679 -38.717,7.003 V -7.675 l 12.712,-7.339 z"
         style="fill:#0b79b7;fill-opacity:1;fill-rule:nonzero;stroke:none"
         id="path58" />
    </g>
    <g
       id="g60"
       transform="translate(20.3073,95.8177)">
      <path
         d="M 0,0 25.42,14.678 -0.588,29.692 -13.298,22.353 V 7.678 Z"
         style="fill:#0b79b7;fill-opacity:1;fill-rule:nonzero;stroke:none"
         id="path62" />
    </g>
    <g
       id="g64"
       transform="translate(126.0908,33.3909)">
      <path
         d="M 0,0 -26.009,15.015 -51.428,0.338 -25.422,-14.678 Z"
         style="fill:#0d6394;fill-opacity:1;fill-rule:nonzero;stroke:none"
         id="path66" />
    </g>
    <g
       id="g68"
       transform="translate(73.4912,126.5255)">
      <path
         d="M 0,0 26.006,15.013 0,30.03 -26.007,15.013 Z"
         style="fill:#198bca;fill-opacity:1;fill-rule:nonzero;stroke:none"
         id="path70" />
    </g>
    <g
       id="g72"
       transform="translate(73.4912,33.052)">
      <path
         d="M 0,0 -26.007,-15.017 0,-30.027 l 26.006,15.01 z"
         style="fill:#0d4972;fill-opacity:1;fill-rule:nonzero;stroke:none"
         id="path74" />
    </g>
    <g
       id="g76"
       transform="translate(126.6783,63.761)">
      <path
         d="m 0,0 -25.426,-14.679 26.008,-15.014 12.712,7.339 v 14.678 z"
         style="fill:#0b79b7;fill-opacity:1;fill-rule:nonzero;stroke:none"
         id="path78" />
    </g>
    <g
       id="g80"
       transform="translate(139.9727,71.4362)">
      <path
         d="M 0,0 -12.124,-7.001 0,-14.001 Z"
         style="fill:#198bca;fill-opacity:1;fill-rule:nonzero;stroke:none"
         id="path82" />
    </g>
    <g
       id="g84"
       transform="translate(127.8479,95.1427)">
      <path
         d="M 0,0 12.125,-7.002 V 7.001 Z"
         style="fill:#0d4972;fill-opacity:1;fill-rule:nonzero;stroke:none"
         id="path86" />
    </g>
    <g
       id="g88"
       transform="translate(101.2527,110.4954)">
      <path
         d="M 0,0 25.422,-14.678 38.72,-7 V 7.676 l -12.71,7.338 z"
         style="fill:#0d6394;fill-opacity:1;fill-rule:nonzero;stroke:none"
         id="path90" />
    </g>
    <g
       id="g92">
      <g
         id="g94"
         clip-path="url(#clipPath98)">
        <text
           xml:space="preserve"
           transform="matrix(1,0,0,-1,160.6519,64.6406)"
           style="font-variant:normal;font-weight:bold;font-stretch:normal;font-size:84.15px;font-family:'Acherus Militant 1';-inkscape-font-specification:AcherusMilitant1-Bold;writing-mode:lr-tb;fill:#0d6394;fill-opacity:1;fill-rule:nonzero;stroke:none"
           id="text102"><tspan
             x="0 63.785702 117.38925 173.93805 234.94679 297.97516 358.64731"
             y="0"
             id="tspan100">HEXAGUN</tspan></text>
      </g>
    </g>
    <text
       xml:space="preserve"
       transform="matrix(1,0,0,-1,164.5273,23.9297)"
       style="font-variant:normal;font-weight:300;font-stretch:normal;font-size:38.25px;font-family:'Acherus Militant 1';-inkscape-font-specification:AcherusMilitant1-Light;writing-mode:lr-tb;fill:#0d6394;fill-opacity:1;fill-rule:nonzero;stroke:none"
       id="text106"><tspan
         x="0 28.305 60.090752 89.581497 101.09475 131.54175 161.26199 171.70425 195.64874 225.40726 250.38451 260.82675 285.45975 313.57349 337.51801 365.63174 391.98599"
         y="0"
         id="tspan104">CODING THE FUTURE</tspan></text>
  </g>
</svg>
